<svg width="167" height="167" viewBox="0 0 167 167" fill="none" xmlns="http://www.w3.org/2000/svg">
<path d="M83.5 166C129.063 166 166 129.063 166 83.5C166 37.9365 129.063 1 83.5 1C37.9365 1 1 37.9365 1 83.5C1 129.063 37.9365 166 83.5 166Z" stroke="black" stroke-width="0.916667" stroke-miterlimit="10"/>
<path d="M83.5 149.5C129.063 149.5 166 119.95 166 83.4997C166 47.0489 129.063 17.4997 83.5 17.4997C37.9365 17.4997 1 47.0489 1 83.4997C1 119.95 37.9365 149.5 83.5 149.5Z" stroke="black" stroke-width="0.916667" stroke-miterlimit="10"/>
<path d="M83.5 133C129.063 133 166 110.838 166 83.4999C166 56.1618 129.063 33.9999 83.5 33.9999C37.9365 33.9999 1 56.1618 1 83.4999C1 110.838 37.9365 133 83.5 133Z" stroke="black" stroke-width="0.916667" stroke-miterlimit="10"/>
<path d="M83.5 116.5C129.063 116.5 166 101.726 166 83.5001C166 65.2747 129.063 50.5001 83.5 50.5001C37.9365 50.5001 1 65.2747 1 83.5001C1 101.726 37.9365 116.5 83.5 116.5Z" stroke="black" stroke-width="0.916667" stroke-miterlimit="10"/>
<path d="M83.5 100C129.063 100 166 92.613 166 83.5003C166 74.3876 129.063 67.0003 83.5 67.0003C37.9365 67.0003 1 74.3876 1 83.5003C1 92.613 37.9365 100 83.5 100Z" stroke="black" stroke-width="0.916667" stroke-miterlimit="10"/>
<path d="M1 83.5H166" stroke="black" stroke-width="0.916667" stroke-miterlimit="10"/>
<path d="M83.5 166C129.063 166 166 129.063 166 83.5C166 37.9365 129.063 1 83.5 1C37.9365 1 1 37.9365 1 83.5C1 129.063 37.9365 166 83.5 166Z" stroke="black" stroke-width="0.916667" stroke-miterlimit="10"/>
<path d="M83.4998 166C119.951 166 149.5 129.063 149.5 83.5C149.5 37.9365 119.951 1 83.4998 1C47.049 1 17.4998 37.9365 17.4998 83.5C17.4998 129.063 47.049 166 83.4998 166Z" stroke="black" stroke-width="0.916667" stroke-miterlimit="10"/>
<path d="M83.4999 166C110.838 166 133 129.063 133 83.5C133 37.9365 110.838 1 83.4999 1C56.1618 1 33.9999 37.9365 33.9999 83.5C33.9999 129.063 56.1618 166 83.4999 166Z" stroke="black" stroke-width="0.916667" stroke-miterlimit="10"/>
<path d="M83.5001 166C101.726 166 116.5 129.063 116.5 83.5C116.5 37.9365 101.726 1 83.5001 1C65.2747 1 50.5001 37.9365 50.5001 83.5C50.5001 129.063 65.2747 166 83.5001 166Z" stroke="black" stroke-width="0.916667" stroke-miterlimit="10"/>
<path d="M83.5002 166C92.6129 166 100 129.063 100 83.5C100 37.9365 92.6129 1 83.5002 1C74.3875 1 67.0002 37.9365 67.0002 83.5C67.0002 129.063 74.3875 166 83.5002 166Z" stroke="black" stroke-width="0.916667" stroke-miterlimit="10"/>
<path d="M83.5 166V1" stroke="black" stroke-width="0.916667" stroke-miterlimit="10"/>
<path d="M83.5 166C129.063 166 166 129.063 166 83.5C166 37.9365 129.063 1 83.5 1C37.9365 1 1 37.9365 1 83.5C1 129.063 37.9365 166 83.5 166Z" stroke="black" stroke-width="0.916667" stroke-miterlimit="10"/>
<path d="M83.4998 166C119.951 166 149.5 129.063 149.5 83.5C149.5 37.9365 119.951 1 83.4998 1C47.049 1 17.4998 37.9365 17.4998 83.5C17.4998 129.063 47.049 166 83.4998 166Z" stroke="black" stroke-width="0.916667" stroke-miterlimit="10"/>
<path d="M83.4999 166C110.838 166 133 129.063 133 83.5C133 37.9365 110.838 1 83.4999 1C56.1618 1 33.9999 37.9365 33.9999 83.5C33.9999 129.063 56.1618 166 83.4999 166Z" stroke="black" stroke-width="0.916667" stroke-miterlimit="10"/>
<path d="M83.5001 166C101.726 166 116.5 129.063 116.5 83.5C116.5 37.9365 101.726 1 83.5001 1C65.2747 1 50.5001 37.9365 50.5001 83.5C50.5001 129.063 65.2747 166 83.5001 166Z" stroke="black" stroke-width="0.916667" stroke-miterlimit="10"/>
<path d="M83.5002 166C92.6129 166 100 129.063 100 83.5C100 37.9365 92.6129 1 83.5002 1C74.3875 1 67.0002 37.9365 67.0002 83.5C67.0002 129.063 74.3875 166 83.5002 166Z" stroke="black" stroke-width="0.916667" stroke-miterlimit="10"/>
<path d="M83.5 166V1" stroke="black" stroke-width="0.916667" stroke-miterlimit="10"/>
</svg>
